<svg width="249" height="87" viewBox="0 0 249 87" fill="none" xmlns="http://www.w3.org/2000/svg">
<path d="M4.32 67.08C7.84 77.56 14.64 82.8 24.72 82.8C31.52 82.8 36.24 80.88 38.88 77.04C41.6 73.12 42.96 67.76 42.96 60.96V1.2H46.56V60.96C46.56 77.92 39.28 86.4 24.72 86.4C17.84 86.4 12.52 84.68 8.76 81.24C5.08 77.8 2.16 73.08 0 67.08H4.32Z" fill="black"/>
<path d="M97.4287 21.96C97.4287 14.2 99.3888 8.6 103.309 5.16C107.229 1.72 113.589 0 122.389 0C128.549 0 133.509 1.6 137.269 4.8C141.029 8 143.749 12.88 145.429 19.44L134.269 27.84H128.389L141.349 18.12C139.669 12.76 137.229 9 134.029 6.84C130.909 4.68 127.029 3.6 122.389 3.6C119.189 3.6 116.469 3.8 114.229 4.2C112.069 4.6 109.869 5.4 107.629 6.6C105.469 7.72 103.829 9.56 102.709 12.12C101.589 14.68 101.029 17.96 101.029 21.96C101.029 25.48 102.629 28.6 105.829 31.32C109.109 34.04 113.069 36.36 117.709 38.28C122.349 40.2 126.989 42.16 131.629 44.16C136.349 46.16 140.309 48.72 143.509 51.84C146.789 54.96 148.429 58.56 148.429 62.64C148.429 70.64 146.429 76.6 142.429 80.52C138.509 84.44 131.749 86.4 122.149 86.4C114.309 86.4 108.149 84.84 103.669 81.72C99.1888 78.52 96.1087 73.6 94.4287 66.96L97.7887 65.52C99.3887 72 102.109 76.52 105.949 79.08C109.869 81.56 115.269 82.8 122.149 82.8C129.829 82.8 135.509 81.32 139.189 78.36C142.949 75.4 144.829 70.16 144.829 62.64C144.829 59.12 143.189 56 139.909 53.28C136.709 50.56 132.749 48.24 128.029 46.32C123.389 44.4 118.749 42.44 114.109 40.44C109.469 38.44 105.509 35.88 102.229 32.76C99.0288 29.64 97.4287 26.04 97.4287 21.96Z" fill="black"/>
<path d="M199.374 81.6H243.534L218.094 11.64L191.334 85.2H187.494L218.094 1.08L248.694 85.2H199.374V81.6Z" fill="black"/>
</svg>
