<svg width="249" height="88" viewBox="0 0 249 88" fill="none" xmlns="http://www.w3.org/2000/svg">
<path d="M4.59891 67.88C8.11891 78.36 14.9189 83.6 24.9989 83.6C31.7989 83.6 36.5189 81.68 39.1589 77.84C41.8789 73.92 43.2389 68.56 43.2389 61.76V1.99999H46.8389V61.76C46.8389 78.72 39.5589 87.2 24.9989 87.2C18.1189 87.2 12.7989 85.48 9.03891 82.04C5.35891 78.6 2.43891 73.88 0.278908 67.88H4.59891Z" fill="white"/>
<path d="M97.7077 22.76C97.7077 15 99.6677 9.4 103.588 5.95999C107.508 2.51999 113.868 0.799995 122.668 0.799995C128.828 0.799995 133.788 2.4 137.548 5.6C141.308 8.79999 144.028 13.68 145.708 20.24L134.548 28.64H128.668L141.628 18.92C139.948 13.56 137.508 9.79999 134.308 7.63999C131.188 5.48 127.308 4.4 122.668 4.4C119.468 4.4 116.748 4.6 114.508 5C112.348 5.4 110.148 6.2 107.908 7.4C105.748 8.52 104.108 10.36 102.988 12.92C101.868 15.48 101.308 18.76 101.308 22.76C101.308 26.28 102.908 29.4 106.108 32.12C109.388 34.84 113.348 37.16 117.988 39.08C122.628 41 127.268 42.96 131.908 44.96C136.628 46.96 140.588 49.52 143.788 52.64C147.068 55.76 148.708 59.36 148.708 63.44C148.708 71.44 146.708 77.4 142.708 81.32C138.788 85.24 132.028 87.2 122.428 87.2C114.588 87.2 108.428 85.64 103.948 82.52C99.4677 79.32 96.3877 74.4 94.7077 67.76L98.0677 66.32C99.6677 72.8 102.388 77.32 106.228 79.88C110.148 82.36 115.548 83.6 122.428 83.6C130.108 83.6 135.788 82.12 139.468 79.16C143.228 76.2 145.108 70.96 145.108 63.44C145.108 59.92 143.468 56.8 140.188 54.08C136.988 51.36 133.028 49.04 128.308 47.12C123.668 45.2 119.028 43.24 114.388 41.24C109.748 39.24 105.788 36.68 102.508 33.56C99.3077 30.44 97.7077 26.84 97.7077 22.76Z" fill="white"/>
<path d="M199.653 82.4H243.813L218.373 12.44L191.613 86H187.773L218.373 1.88L248.973 86H199.653V82.4Z" fill="white"/>
</svg>
